<?xml version="1.0" standalone="no"?>
<!DOCTYPE svg PUBLIC "-//W3C//DTD SVG 20010904//EN"
 "http://www.w3.org/TR/2001/REC-SVG-20010904/DTD/svg10.dtd">
<svg version="1.0" xmlns="http://www.w3.org/2000/svg"
 width="818.000000pt" height="1280.000000pt" viewBox="0 0 818.000000 1280.000000"
 preserveAspectRatio="xMidYMid meet">
<metadata>
Created by potrace 1.15, written by Peter Selinger 2001-2017
</metadata>
<g transform="translate(0.000000,1280.000000) scale(0.100000,-0.100000)"
fill="#FFFFFF" stroke="none">
<path d="M1702 12775 c-13 -16 -22 -42 -22 -62 0 -30 -2 -33 -19 -23 -23 12
-51 13 -69 2 -22 -14 3 -58 47 -83 41 -23 41 -23 41 -82 l0 -59 -44 26 c-46
27 -90 34 -101 15 -17 -26 7 -55 75 -94 l70 -40 0 -102 0 -102 -86 49 c-63 37
-92 48 -110 44 -25 -7 -30 -24 -14 -53 5 -10 55 -44 110 -76 97 -55 100 -58
100 -92 0 -34 -1 -35 -22 -21 -13 8 -69 40 -124 72 -81 45 -107 56 -129 50
-17 -4 -24 -11 -21 -21 3 -8 6 -20 6 -27 0 -8 65 -51 145 -97 l145 -84 0 -38
0 -38 -57 32 c-32 18 -67 38 -78 46 -23 16 -71 17 -80 2 -19 -29 7 -56 109
-114 l105 -60 1 -42 c0 -24 -3 -43 -6 -43 -3 0 -25 11 -48 25 -35 21 -48 24
-69 16 -44 -17 -23 -55 53 -100 l65 -37 3 -66 3 -66 -57 -31 c-32 -17 -60 -31
-63 -31 -3 0 -31 69 -62 153 -50 137 -58 152 -81 155 -13 2 -31 -4 -38 -13
-11 -13 -4 -41 45 -176 31 -88 55 -163 52 -166 -6 -5 -12 4 -132 202 -90 150
-92 152 -124 157 -19 2 -26 -3 -31 -23 -7 -25 21 -76 191 -356 11 -18 16 -34
10 -37 -5 -4 -59 52 -121 124 -86 101 -116 130 -135 130 -18 0 -26 -7 -31 -25
-6 -24 36 -83 163 -228 18 -20 33 -41 33 -45 0 -5 -22 -21 -48 -35 l-48 -26
-52 30 -52 29 0 84 c0 70 -3 86 -20 101 -19 17 -21 17 -40 0 -16 -14 -20 -31
-20 -77 l0 -58 -40 20 -40 20 0 129 c0 115 -2 130 -20 146 -19 17 -21 17 -40
0 -16 -15 -20 -33 -22 -121 l-3 -103 -32 20 -33 21 0 167 c0 155 -2 169 -20
186 -19 17 -21 17 -40 0 -18 -16 -20 -31 -20 -162 0 -78 -2 -143 -5 -143 -3 0
-17 7 -30 16 -24 16 -25 19 -25 144 0 110 -2 129 -18 143 -17 16 -20 16 -40
-6 -18 -19 -22 -37 -24 -119 l-3 -97 -85 49 -85 49 -5 92 c-4 72 -9 94 -22
103 -13 8 -22 6 -37 -8 -17 -15 -21 -31 -21 -78 l0 -59 -50 27 -50 27 0 52 c0
39 -5 56 -20 70 -19 17 -21 17 -40 0 -11 -10 -20 -31 -20 -46 l0 -28 -34 20
c-23 13 -43 18 -60 13 -44 -11 -29 -56 29 -89 17 -10 16 -13 -8 -38 -34 -33
-34 -55 -2 -67 19 -7 34 -4 69 16 l46 25 50 -27 51 -28 -51 -29 c-31 -18 -52
-38 -56 -52 -14 -57 30 -59 122 -6 l67 39 76 -45 c42 -24 80 -48 84 -53 5 -4
-28 -28 -73 -54 -83 -48 -117 -89 -88 -108 26 -16 52 -7 155 52 101 58 105 59
128 44 14 -9 25 -18 25 -19 0 -2 -52 -34 -115 -70 -64 -37 -120 -75 -125 -85
-17 -31 -11 -47 16 -53 21 -4 59 14 164 74 76 43 142 79 148 79 15 0 62 -22
62 -29 0 -3 -38 -28 -84 -54 -76 -44 -95 -63 -96 -99 0 -3 13 -9 28 -13 23 -5
49 6 135 55 l107 62 36 -23 36 -22 -46 -26 c-28 -16 -49 -37 -55 -54 -9 -25
-7 -29 15 -37 14 -6 27 -10 29 -10 2 0 35 18 73 40 l70 41 51 -31 51 -32 0
-74 c0 -42 -3 -73 -7 -71 -5 3 -77 17 -161 31 -160 28 -182 26 -182 -13 0 -32
18 -39 160 -65 186 -34 190 -35 190 -46 0 -6 -79 -10 -208 -10 -190 0 -210 -2
-225 -18 -21 -23 -21 -36 -2 -52 12 -10 68 -12 225 -11 134 1 210 -1 210 -8 0
-13 -11 -16 -185 -46 -146 -26 -165 -33 -165 -66 0 -40 23 -42 178 -15 81 14
153 26 160 26 8 0 12 -19 12 -59 l0 -59 -53 -27 -53 -28 -69 40 c-53 31 -75
39 -94 33 -14 -3 -25 -9 -23 -13 1 -4 2 -16 2 -26 0 -12 18 -31 51 -51 l52
-32 -29 -19 c-16 -10 -35 -19 -43 -19 -8 0 -60 27 -116 59 -77 45 -107 58
-128 54 -32 -6 -36 -34 -8 -62 10 -10 48 -35 85 -56 36 -20 68 -41 71 -45 3
-5 -8 -16 -26 -25 l-31 -16 -146 84 c-129 74 -150 83 -173 75 -25 -8 -26 -12
-18 -36 7 -21 40 -45 129 -97 66 -39 120 -73 120 -76 0 -3 -12 -11 -26 -18
-24 -10 -36 -6 -134 49 -86 49 -114 59 -135 54 -21 -5 -25 -11 -21 -28 3 -11
6 -24 6 -27 0 -4 38 -29 85 -55 47 -27 85 -51 85 -54 0 -3 -38 -27 -84 -53
l-85 -49 -71 42 c-57 33 -77 40 -100 35 -34 -7 -33 -6 -20 -39 5 -14 31 -38
61 -55 l52 -29 -53 -30 -53 -30 -38 24 c-21 13 -45 24 -53 24 -51 0 -61 -37
-20 -75 l26 -24 -30 -15 c-17 -9 -35 -29 -40 -46 -10 -28 -9 -30 15 -36 15 -4
39 0 59 10 45 21 44 21 44 -12 0 -16 9 -37 20 -47 19 -17 21 -17 40 0 15 14
20 31 20 74 l0 56 50 27 50 28 0 -58 c0 -48 4 -62 23 -80 23 -22 24 -22 40 -4
13 14 17 38 17 103 l0 85 81 47 c44 26 84 47 90 47 5 0 9 -44 9 -98 0 -86 3
-101 20 -117 19 -17 21 -17 40 0 18 16 20 31 20 144 l0 127 30 17 30 18 0
-149 c0 -131 2 -151 18 -165 17 -16 20 -15 40 6 21 22 22 33 22 190 l0 166 30
16 c16 8 31 15 35 15 3 0 5 -44 5 -98 0 -86 3 -101 20 -117 19 -17 21 -17 40
0 18 16 20 31 20 145 l0 126 35 17 c20 9 38 17 41 17 3 0 4 -25 3 -55 -2 -41
2 -60 16 -75 l18 -20 24 22 c20 19 23 31 23 104 l0 82 53 27 54 28 56 -32 c31
-18 57 -36 57 -41 0 -8 -33 -49 -188 -232 -23 -28 -8 -68 26 -68 21 0 38 13
77 62 101 125 169 200 173 190 2 -6 -40 -89 -94 -184 -92 -164 -108 -208 -85
-231 5 -5 20 -3 36 4 19 10 50 54 102 149 114 205 123 221 132 215 5 -2 -18
-77 -50 -166 -47 -129 -57 -164 -48 -180 7 -14 19 -19 37 -17 25 3 31 14 82
150 30 81 58 150 62 153 3 4 27 -5 52 -20 l46 -27 0 -62 0 -62 -67 -38 c-38
-21 -69 -39 -70 -40 -1 -1 -4 -13 -8 -28 -6 -24 -3 -29 19 -38 22 -8 35 -4 76
20 l50 29 0 -44 0 -44 -107 -63 c-90 -53 -109 -68 -111 -90 -3 -22 2 -29 22
-34 20 -5 44 5 104 40 43 25 82 46 86 46 4 0 6 -17 4 -37 -3 -37 -6 -39 -142
-119 -155 -89 -185 -123 -130 -144 22 -9 37 -3 109 40 47 27 103 59 125 70
l40 20 0 -32 c0 -31 -6 -36 -105 -93 -77 -44 -107 -67 -114 -87 -8 -24 -7 -28
19 -36 21 -8 34 -6 56 7 16 9 55 32 87 50 l57 32 0 -100 0 -100 -62 -37 c-70
-41 -88 -59 -88 -86 0 -31 45 -33 94 -4 65 38 70 36 63 -31 -3 -32 -11 -59
-16 -61 -34 -11 -76 -51 -79 -74 -2 -20 2 -27 23 -32 14 -4 34 -2 45 4 28 15
30 13 30 -28 0 -27 7 -45 21 -58 20 -18 21 -18 40 6 10 14 19 40 19 58 0 33 8
40 27 21 7 -7 24 -8 43 -4 26 6 31 11 26 28 -3 12 -6 25 -6 29 0 3 -20 18 -45
32 -45 27 -45 27 -45 81 0 30 2 55 5 55 3 0 23 -11 45 -25 42 -26 66 -31 90
-15 29 18 0 60 -70 99 l-65 37 -3 103 -3 104 23 -15 c87 -56 154 -86 176 -77
25 10 29 40 8 62 -8 8 -58 38 -110 68 -90 51 -96 56 -96 87 0 18 3 31 8 29
244 -140 239 -138 267 -127 21 8 25 14 20 33 -10 31 -8 30 -156 115 -131 76
-134 78 -137 115 -2 20 -1 37 1 37 3 0 40 -20 83 -45 44 -25 86 -45 94 -45 29
0 43 17 36 43 -4 19 -32 41 -111 87 l-105 61 0 45 0 44 43 -27 c40 -26 82 -32
99 -15 20 20 -13 61 -77 97 l-66 37 3 66 3 66 55 32 c30 18 58 29 61 26 6 -6
76 -192 102 -269 13 -41 43 -52 69 -25 19 19 19 20 -10 103 -17 46 -44 119
-60 161 -17 43 -27 80 -22 83 4 3 56 -76 116 -175 105 -176 131 -206 162 -186
29 18 16 52 -88 225 -60 100 -104 184 -98 187 5 3 10 4 12 3 1 -2 50 -61 110
-131 104 -125 128 -142 154 -116 23 23 11 46 -70 143 -46 54 -93 110 -105 125
l-22 27 51 28 52 28 53 -29 53 -28 0 -81 c0 -73 3 -84 24 -104 l23 -22 17 25
c9 15 16 46 16 76 0 27 3 50 8 50 4 0 22 -9 40 -20 l32 -20 0 -123 c0 -111 2
-126 20 -142 19 -17 21 -17 40 0 17 16 20 31 20 117 0 55 3 98 8 96 4 -2 19
-10 35 -17 l27 -14 0 -172 c0 -154 2 -174 18 -188 17 -16 20 -15 40 6 20 22
22 33 22 165 l0 141 30 -17 30 -17 0 -126 c0 -113 2 -128 20 -144 19 -17 21
-17 40 0 17 16 20 31 20 118 0 114 -8 110 99 47 l69 -39 7 -88 c4 -57 12 -94
23 -106 15 -16 17 -16 39 5 19 18 23 32 23 80 l0 58 50 -31 c50 -31 50 -31 50
-83 0 -39 5 -57 19 -70 18 -17 20 -16 40 1 12 10 21 29 21 45 0 32 6 34 34 13
21 -16 53 -19 79 -9 24 9 2 57 -35 79 l-31 18 21 17 c11 10 24 29 27 43 10 39
-35 48 -86 19 -48 -28 -53 -28 -107 4 l-44 26 43 25 c73 40 92 85 43 97 -20 5
-42 -3 -96 -34 l-69 -41 -84 47 c-47 26 -85 50 -85 53 0 3 38 28 85 54 47 27
85 54 85 62 0 7 3 20 6 28 3 10 -4 16 -23 20 -22 4 -52 -8 -136 -55 -99 -56
-110 -60 -133 -48 -13 8 -24 16 -24 19 0 3 54 37 120 76 89 52 120 75 125 94
6 25 -7 41 -37 41 -9 0 -79 -36 -156 -81 l-140 -80 -31 16 c-17 8 -31 17 -31
20 0 2 38 26 84 54 63 38 85 57 88 76 11 55 -39 49 -155 -19 -100 -60 -119
-64 -162 -32 -18 13 -17 15 28 42 46 28 66 61 52 83 -12 20 -54 11 -114 -24
-32 -19 -65 -35 -73 -34 -7 0 -33 13 -58 28 l-45 28 1 66 c0 37 2 69 5 71 2 2
75 -9 161 -24 153 -27 158 -27 174 -9 14 15 15 24 7 42 -10 21 -27 26 -174 51
-90 16 -168 32 -172 36 -4 4 88 10 205 13 193 6 214 9 232 27 19 19 19 20 1
41 -19 20 -26 21 -227 18 -283 -4 -289 4 -34 50 175 32 199 45 163 93 -12 16
-22 15 -153 -7 -76 -14 -149 -27 -162 -30 -22 -5 -23 -4 -20 56 l3 62 47 29
47 29 70 -41 c57 -34 76 -41 101 -35 26 6 30 10 24 28 -10 32 -23 46 -66 68
-42 22 -42 31 3 54 28 15 31 14 132 -45 57 -33 112 -60 123 -60 31 0 43 13 37
41 -4 21 -23 37 -89 74 -46 26 -84 50 -84 53 0 4 13 14 29 23 28 16 29 16 172
-67 112 -65 150 -83 169 -78 33 7 33 9 26 38 -5 19 -31 40 -104 82 -53 31
-109 64 -124 73 l-27 16 29 17 c29 16 29 16 132 -45 97 -57 139 -70 160 -49
22 22 -13 61 -96 108 l-85 49 42 26 c23 14 62 37 87 52 l45 26 72 -44 c55 -34
77 -42 97 -37 14 4 26 10 26 15 1 43 -3 49 -56 78 -60 34 -60 35 3 69 l41 23
44 -26 c79 -46 131 -10 72 50 -28 28 -29 27 20 58 8 6 18 22 21 36 6 23 3 27
-20 33 -19 5 -38 1 -61 -13 l-34 -20 0 28 c0 15 -9 36 -20 46 -19 17 -21 17
-40 0 -15 -14 -20 -31 -20 -69 0 -51 0 -51 -50 -79 l-50 -28 0 54 c0 44 -4 58
-25 77 l-24 23 -21 -24 c-17 -20 -20 -37 -19 -103 l2 -78 -84 -49 -84 -48 -3
98 c-2 83 -6 101 -22 116 -19 17 -21 17 -40 0 -18 -16 -20 -31 -20 -141 l0
-123 -30 -16 -30 -16 0 144 c0 131 -2 145 -20 162 -19 17 -21 17 -40 0 -18
-17 -20 -31 -20 -186 l0 -167 -32 -21 -33 -20 -3 97 c-2 82 -6 100 -24 119
-20 22 -23 22 -40 6 -16 -14 -18 -33 -18 -144 l0 -129 -40 -20 -40 -20 0 58
c0 46 -4 63 -20 77 -19 17 -21 17 -40 0 -17 -15 -20 -31 -20 -101 l0 -83 -54
-30 -54 -31 -61 36 c-55 33 -60 39 -48 53 109 127 197 237 197 247 0 19 -30
45 -48 42 -9 -2 -63 -59 -121 -127 -58 -68 -111 -126 -118 -128 -7 -3 34 78
89 179 56 101 101 192 100 202 -2 28 -17 39 -44 33 -19 -5 -46 -46 -124 -187
-54 -99 -105 -180 -112 -180 -16 0 -18 -7 52 180 46 124 52 148 41 165 -11 17
-49 23 -63 10 -2 -2 -28 -70 -58 -151 -30 -81 -56 -149 -58 -151 -6 -6 -99 51
-97 60 0 4 1 32 1 62 l0 54 69 40 c61 36 80 58 81 93 0 3 -13 9 -29 13 -22 5
-40 0 -70 -19 -22 -14 -43 -26 -46 -26 -3 0 -5 19 -5 43 l0 42 107 60 c84 47
108 66 114 87 6 23 3 28 -21 36 -21 8 -34 6 -56 -7 -16 -9 -55 -32 -86 -50
l-58 -32 0 38 0 38 144 83 c135 77 155 95 156 133 0 4 -12 10 -26 13 -21 6
-52 -8 -149 -62 l-123 -69 -4 29 c-5 33 -9 30 102 93 105 60 120 72 120 100 0
16 -8 25 -25 29 -20 5 -46 -5 -112 -44 -47 -28 -87 -49 -89 -47 -2 2 -1 48 3
103 l6 100 68 39 c49 27 71 46 78 67 8 21 7 30 -2 33 -7 2 -19 6 -27 8 -8 3
-39 -8 -67 -24 -29 -16 -54 -29 -55 -29 -2 0 -2 25 -2 56 2 56 2 57 47 84 54
35 69 77 30 86 -14 4 -36 1 -49 -5 -34 -15 -34 -16 -34 28 0 23 -8 48 -18 61
l-18 23 -22 -28z m112 -1462 c116 -66 110 -57 74 -121 -17 -32 -33 -59 -34
-61 -2 -2 -31 13 -64 33 -34 20 -64 36 -68 36 -4 0 -33 -16 -65 -35 -32 -19
-62 -35 -67 -35 -9 0 -74 109 -69 115 11 10 195 115 203 115 5 0 46 -21 90
-47z m314 -183 l72 -42 0 -114 0 -114 -70 0 -70 0 0 75 0 74 -65 36 c-36 20
-65 41 -65 47 0 5 14 34 32 63 l32 54 31 -18 c16 -10 63 -37 103 -61z m-650
11 l32 -59 -62 -38 -61 -39 2 -77 2 -78 -75 0 -75 0 5 118 c3 64 9 121 14 125
9 10 172 106 180 106 3 1 20 -25 38 -58z m325 -81 c4 -4 -7 -33 -26 -66 -46
-82 -64 -82 -111 -3 -20 34 -35 63 -34 64 2 1 23 14 48 28 l44 26 36 -21 c19
-12 39 -24 43 -28z m-209 -111 c50 -84 41 -99 -55 -99 l-70 0 3 57 c3 55 4 58
43 80 22 12 41 23 41 23 1 0 18 -27 38 -61z m343 36 c42 -25 43 -27 43 -76 l0
-50 -77 3 c-63 2 -78 6 -81 20 -3 16 54 128 66 128 3 0 25 -11 49 -25z m43
-263 c0 -58 0 -58 -42 -82 -47 -26 -44 -28 -94 56 -36 60 -26 72 59 77 40 1
73 4 75 5 1 1 2 -24 2 -56z m220 -65 l0 -123 -91 -52 c-50 -29 -94 -52 -98
-52 -4 0 -22 25 -41 56 -37 62 -40 54 42 102 l48 27 0 83 0 82 70 0 70 0 0
-123z m-579 97 c11 -14 8 -25 -21 -80 -19 -35 -36 -64 -36 -64 -1 0 -22 12
-48 26 -46 26 -46 26 -46 80 l0 54 69 0 c51 0 72 -4 82 -16z m-234 -39 c-11
-79 -2 -98 69 -139 35 -20 64 -40 64 -44 0 -12 -60 -112 -67 -112 -4 0 -51 25
-105 56 l-98 56 0 114 0 114 71 0 72 0 -6 -45z m375 -47 c8 -13 24 -39 36 -59
l22 -37 -46 -27 c-48 -28 -69 -26 -118 10 -17 13 -17 16 15 74 37 67 65 79 91
39z m136 -225 c18 -31 29 -60 24 -65 -8 -8 -191 -118 -197 -118 -5 0 -180 102
-188 109 -6 6 40 99 59 120 2 2 31 -13 65 -33 l62 -37 66 40 c36 22 68 40 71
41 3 0 20 -25 38 -57z"/>
<path d="M6252 12727 c-30 -30 -32 -38 -32 -101 l0 -67 -53 30 c-49 28 -56 29
-93 19 -21 -7 -40 -13 -42 -14 -2 -1 2 -21 8 -45 11 -42 16 -47 96 -92 l84
-48 0 -141 0 -140 -26 17 c-14 9 -71 44 -125 77 l-100 60 2 100 c1 100 1 100
-30 131 l-31 31 -35 -34 c-32 -31 -35 -39 -35 -93 l0 -59 -46 27 c-38 22 -54
26 -87 21 -55 -9 -56 -10 -44 -57 8 -34 19 -47 59 -72 26 -16 48 -31 48 -33 0
-2 -22 -15 -50 -31 -40 -23 -53 -36 -64 -70 -16 -47 -17 -45 36 -62 35 -12 41
-10 125 35 l88 48 146 -87 c79 -48 150 -87 157 -87 9 0 12 -46 12 -187 l0
-188 -121 -69 c-96 -55 -123 -66 -130 -55 -5 8 -41 69 -80 135 -68 118 -72
122 -114 133 -24 6 -46 11 -48 11 -3 0 -10 -21 -16 -46 l-12 -45 73 -127 c40
-70 73 -133 73 -140 0 -6 -53 -43 -119 -81 l-118 -68 -152 88 -151 89 3 183 3
182 84 50 c77 46 85 53 94 92 6 23 11 44 11 46 0 3 -20 10 -45 16 -42 11 -48
9 -92 -19 l-48 -29 -6 27 c-4 15 -7 41 -8 58 -1 20 -11 40 -31 59 l-30 29 -36
-35 c-33 -32 -35 -38 -32 -87 2 -28 1 -52 -2 -52 -3 0 -27 12 -55 26 -45 24
-54 25 -92 15 -46 -13 -48 -18 -30 -69 10 -26 30 -42 97 -81 l85 -48 3 -148 3
-148 -23 15 c-13 8 -67 41 -120 72 l-98 57 0 98 c0 97 0 97 -33 129 l-33 32
-32 -33 c-28 -29 -32 -39 -32 -90 0 -31 -2 -57 -5 -57 -3 0 -30 14 -59 31 -43
24 -62 29 -88 24 -55 -10 -58 -15 -46 -63 9 -37 17 -46 69 -74 33 -18 59 -36
59 -39 0 -4 -12 -12 -28 -18 -55 -23 -82 -53 -85 -96 -2 -39 -1 -40 39 -48 38
-9 47 -6 122 37 45 25 84 46 87 46 3 0 58 -30 121 -66 102 -59 113 -68 97 -79
-46 -31 -221 -125 -232 -125 -8 0 -47 21 -89 46 -68 41 -80 45 -119 39 -23 -3
-45 -10 -47 -14 -3 -4 0 -25 5 -47 9 -34 19 -46 60 -69 27 -16 49 -32 49 -35
0 -3 -22 -17 -49 -32 -35 -20 -50 -35 -54 -55 -3 -16 -8 -35 -12 -44 -5 -13 4
-19 40 -28 43 -11 50 -10 92 14 25 14 47 25 49 25 2 0 4 -27 4 -59 0 -49 4
-65 26 -90 32 -38 43 -39 76 -3 23 24 26 38 31 124 3 54 8 102 12 107 3 6 69
45 146 87 78 43 143 83 146 90 3 8 56 -18 156 -76 l152 -88 3 -146 3 -146
-159 0 -158 0 -32 -33 -32 -33 32 -31 33 -32 157 -3 158 -3 0 -145 -1 -145
-151 -86 c-139 -80 -152 -85 -167 -70 -9 9 -81 52 -159 96 l-142 79 0 96 c0
96 0 96 -33 128 l-33 32 -32 -33 c-28 -29 -32 -39 -32 -90 0 -31 -3 -57 -6
-57 -3 0 -25 11 -49 25 -40 24 -46 25 -89 13 -35 -9 -45 -16 -41 -28 4 -8 9
-28 12 -43 4 -21 19 -36 54 -55 27 -15 49 -29 49 -32 0 -3 -22 -19 -49 -35
-41 -23 -51 -35 -60 -69 -12 -47 -9 -51 40 -64 33 -9 42 -6 118 39 46 27 86
49 91 49 6 0 238 -126 248 -135 4 -4 -169 -107 -210 -125 -24 -11 -34 -8 -108
34 -72 42 -86 47 -121 41 -47 -8 -52 -15 -43 -61 5 -30 16 -42 62 -71 l55 -36
-59 -33 c-51 -29 -61 -39 -71 -75 -7 -23 -10 -45 -8 -50 3 -4 25 -11 48 -14
37 -6 51 -2 96 24 28 17 54 31 56 31 3 0 5 -26 5 -58 0 -53 3 -61 35 -92 l35
-34 30 29 c28 27 29 31 32 133 l3 105 118 68 118 69 -3 -147 -3 -147 -84 -47
c-89 -50 -95 -56 -106 -106 -6 -30 -5 -32 35 -44 38 -12 46 -10 96 14 30 15
55 27 57 27 1 0 0 -24 -1 -54 -3 -48 -1 -57 29 -90 l32 -37 39 37 c35 35 38
43 38 91 l0 53 49 -31 c40 -24 57 -29 84 -24 57 11 61 17 46 66 -13 39 -23 49
-96 94 l-82 50 -3 183 -3 183 148 85 c81 47 153 84 160 82 19 -5 237 -132 237
-139 0 -3 -34 -64 -75 -137 l-75 -131 11 -46 c6 -25 13 -45 16 -45 2 0 24 5
48 11 42 11 45 14 121 145 43 74 80 134 83 133 3 0 58 -31 121 -68 l115 -67 3
-172 c2 -128 -1 -172 -9 -172 -7 0 -77 -38 -157 -85 -79 -47 -146 -85 -148
-85 -3 0 -40 20 -84 45 -87 49 -88 50 -142 35 -36 -10 -36 -11 -26 -48 13 -47
29 -65 78 -87 22 -10 40 -21 40 -24 0 -3 -22 -18 -48 -33 -42 -24 -50 -33 -59
-73 l-10 -45 41 -11 c37 -10 45 -9 89 15 26 14 49 26 52 26 3 0 5 -26 5 -58 0
-53 3 -61 35 -92 l35 -34 36 35 36 34 -4 100 -3 99 75 46 c41 26 96 59 123 74
l47 28 0 -139 0 -138 -85 -48 c-76 -43 -86 -52 -95 -88 -6 -22 -8 -43 -5 -48
3 -5 23 -12 45 -16 32 -5 49 -2 86 19 26 14 48 26 50 26 2 0 4 -31 4 -68 0
-64 2 -70 33 -100 l32 -31 38 35 c35 34 37 38 37 100 l0 65 53 -29 c45 -25 57
-28 87 -20 48 13 51 17 38 66 -10 39 -16 45 -94 90 l-84 47 0 138 0 139 33
-20 c17 -11 72 -44 121 -74 l89 -53 -2 -97 -2 -97 33 -36 33 -35 38 34 c34 32
37 39 37 91 l0 57 44 -26 c50 -29 56 -30 107 -16 l36 10 -10 46 c-9 39 -17 48
-59 72 -26 15 -48 30 -48 33 0 4 12 12 28 18 55 23 82 53 85 96 2 39 1 40 -39
48 -38 9 -47 6 -123 -38 -46 -25 -89 -44 -96 -42 -7 3 -72 42 -144 86 -73 45
-139 81 -147 81 -12 0 -14 29 -14 173 l1 172 120 69 c66 37 121 67 123 65 2
-2 36 -62 77 -133 74 -129 85 -140 149 -153 23 -4 27 0 38 42 l12 46 -75 130
c-41 72 -75 134 -75 139 0 11 231 142 244 138 33 -9 305 -173 298 -180 -5 -5
-7 -86 -4 -181 l4 -172 -86 -50 c-73 -43 -87 -55 -96 -85 -15 -53 -13 -57 32
-68 39 -10 47 -9 95 19 l53 30 0 -60 c0 -57 2 -61 35 -87 l36 -27 35 34 c34
33 36 36 30 87 -3 28 -4 52 -1 52 3 0 29 -13 56 -29 50 -28 52 -29 95 -14 24
8 44 16 44 16 0 1 -6 21 -13 45 -12 40 -20 47 -98 91 l-84 47 -3 142 c-1 78 0
142 3 142 2 0 56 -30 119 -66 l114 -65 1 -102 c2 -98 3 -103 31 -132 l30 -29
35 34 c32 31 35 39 35 92 l0 59 63 -34 c58 -32 64 -33 102 -22 43 13 43 13 32
67 -7 32 -15 41 -67 69 -33 17 -60 35 -60 38 0 3 23 18 50 33 41 23 51 34 60
68 6 22 8 44 5 49 -3 5 -23 12 -45 16 -36 6 -49 2 -118 -39 -44 -25 -83 -46
-89 -46 -11 0 -211 114 -225 128 -9 9 216 142 240 142 6 0 46 -22 89 -49 78
-48 80 -49 126 -38 35 8 46 14 43 26 -3 9 -7 30 -11 47 -4 23 -18 37 -55 59
-28 16 -50 32 -50 35 0 3 20 16 44 29 30 15 48 33 55 54 19 52 14 63 -30 76
-37 11 -44 10 -86 -13 -25 -14 -47 -26 -49 -26 -2 0 -4 26 -4 58 0 53 -3 61
-35 92 l-35 34 -30 -29 c-27 -26 -30 -36 -31 -89 0 -34 -4 -81 -7 -106 l-7
-44 -140 -79 c-77 -43 -145 -84 -151 -92 -9 -12 -38 2 -162 73 l-151 87 -1
143 0 142 150 0 149 0 36 31 c19 17 35 37 35 43 0 7 -12 24 -28 39 -27 26 -29
26 -185 28 l-158 1 3 146 3 147 149 86 c143 84 150 87 165 69 9 -10 77 -52
151 -93 l135 -75 10 -106 c9 -95 13 -108 37 -133 l28 -27 35 34 c32 31 35 39
35 93 l0 58 49 -27 c46 -26 50 -27 95 -14 36 10 46 16 41 29 -4 9 -9 28 -12
44 -4 20 -19 34 -54 54 -27 14 -49 29 -49 33 0 4 22 21 48 37 40 25 51 38 59
72 6 22 7 43 3 46 -5 3 -28 8 -52 10 -38 5 -51 1 -122 -43 l-78 -49 -120 68
c-66 37 -122 70 -125 72 -6 7 214 137 230 137 7 0 48 -22 91 -49 78 -48 80
-48 120 -37 40 12 41 14 39 52 -3 42 -30 72 -85 95 -16 6 -28 14 -28 18 0 3
27 21 59 40 52 30 59 38 68 77 l10 44 -36 10 c-51 14 -54 13 -111 -20 -28 -16
-53 -30 -55 -30 -3 0 -5 26 -5 58 0 53 -3 61 -35 92 l-35 34 -33 -32 -32 -32
3 -100 2 -99 -72 -42 c-40 -22 -94 -54 -121 -70 l-48 -29 3 147 3 146 85 48
c77 44 85 52 97 91 14 48 10 53 -43 63 -25 4 -46 -1 -83 -20 -28 -14 -53 -25
-56 -25 -3 0 -5 26 -5 58 0 52 -3 62 -30 87 l-30 29 -35 -34 c-31 -30 -35 -39
-35 -88 l0 -53 -53 30 c-48 28 -56 29 -95 19 -45 -11 -47 -15 -32 -68 9 -30
23 -42 95 -85 l86 -50 -3 -170 c-1 -93 1 -175 5 -182 4 -7 -45 -41 -142 -97
-82 -47 -154 -86 -161 -86 -19 0 -240 131 -240 142 0 5 34 67 74 138 73 124
75 129 65 166 -15 53 -18 55 -67 42 -41 -10 -44 -14 -119 -144 -58 -99 -82
-133 -93 -129 -8 4 -63 34 -122 68 l-107 62 -1 188 c0 129 3 187 11 187 6 0
74 38 151 85 77 47 145 85 150 85 6 0 47 -21 92 -46 79 -45 82 -46 126 -35 24
7 45 13 46 14 2 1 -3 22 -9 46 -10 38 -19 48 -65 74 l-53 29 49 34 c37 24 51
41 56 65 10 54 8 57 -39 64 -37 6 -52 3 -89 -19 l-44 -26 -7 64 c-5 52 -11 68
-36 92 l-29 28 -36 -35 -36 -34 5 -98 5 -97 -124 -74 -124 -74 0 138 0 138 84
48 c80 46 85 51 96 92 6 25 10 45 8 46 -2 1 -21 7 -43 14 -36 11 -43 9 -92
-18 -29 -17 -54 -30 -55 -30 -2 0 -4 33 -6 73 -3 62 -7 76 -30 100 -14 15 -29
27 -32 27 -3 0 -20 -15 -38 -33z m-34 -1567 l-3 -99 -80 140 c-44 77 -80 145
-80 150 0 5 36 31 80 57 l80 48 3 -98 c1 -54 1 -143 0 -198z m235 240 c42 -24
76 -47 75 -50 -13 -28 -164 -289 -168 -290 -3 0 -4 88 -2 196 2 107 6 194 10
192 4 -2 42 -23 85 -48z m-443 -262 c46 -79 85 -147 88 -153 4 -5 -5 -3 -18 6
-14 8 -94 55 -178 104 l-154 88 44 27 c97 59 114 68 124 69 7 1 49 -63 94
-141z m732 96 c65 -38 77 -49 66 -59 -16 -15 -328 -196 -328 -190 0 12 170
295 177 295 4 0 42 -21 85 -46z m154 -360 c-4 -10 -46 -13 -176 -12 -94 1
-167 4 -163 8 4 4 82 51 173 104 l165 96 3 -92 c1 -50 1 -97 -2 -104z m-1034
90 c92 -53 168 -98 168 -101 0 -2 -79 -3 -175 -2 l-175 2 0 98 c0 55 3 99 7
99 4 0 82 -43 175 -96z m168 -238 c0 -2 -69 -44 -152 -92 -84 -48 -163 -94
-175 -102 l-23 -14 0 101 0 101 168 3 c92 1 170 4 175 5 4 1 7 0 7 -2z m868
-109 l-3 -96 -167 97 -167 97 162 5 c89 3 166 2 170 -1 4 -3 6 -49 5 -102z
m-801 -14 c-80 -143 -171 -293 -177 -293 -4 0 -44 21 -89 47 -52 31 -76 50
-68 55 25 16 332 196 335 197 2 1 1 -2 -1 -6z m563 -100 l170 -97 -83 -48
c-45 -26 -86 -47 -91 -45 -10 3 -178 287 -170 287 2 0 81 -44 174 -97z m-440
-178 l0 -194 -77 45 c-43 25 -82 50 -87 54 -6 6 151 289 162 290 1 0 2 -88 2
-195z m229 52 c45 -76 81 -139 81 -142 0 -4 -157 -95 -165 -95 -3 0 -5 86 -5
192 0 105 2 189 4 187 2 -2 40 -66 85 -142z"/>
<path d="M6031 8006 l-23 -24 11 -298 c5 -164 8 -300 6 -302 -2 -2 -21 8 -42
22 -59 41 -113 34 -113 -15 0 -35 16 -51 97 -104 l61 -39 7 -101 c3 -55 5
-146 3 -203 l-3 -103 -108 71 c-109 71 -152 85 -176 56 -6 -7 -8 -26 -5 -42 5
-24 31 -46 155 -128 l149 -99 0 -72 c0 -40 3 -99 6 -132 l7 -60 -92 -51 -92
-51 -112 61 c-62 34 -113 62 -115 63 -2 2 -12 80 -24 174 -21 168 -22 173 -51
193 l-29 21 -25 -26 -26 -25 17 -132 c9 -73 15 -134 13 -136 -5 -6 -341 177
-353 192 -6 8 -15 47 -18 87 -11 106 -61 151 -101 91 -13 -20 -16 -38 -11 -71
5 -40 4 -44 -12 -39 -9 4 -127 66 -261 137 -213 114 -249 130 -278 124 -41 -7
-47 -18 -33 -58 9 -29 35 -45 270 -170 143 -76 260 -140 260 -143 0 -2 -18
-13 -40 -24 -67 -34 -79 -97 -23 -112 28 -7 45 -2 113 32 l80 40 175 -92 c96
-51 175 -96 175 -100 0 -3 -54 -34 -119 -67 -107 -55 -120 -64 -126 -93 -8
-35 11 -58 48 -58 11 0 88 35 173 77 l153 78 103 -54 c57 -30 109 -59 116 -64
9 -7 12 -37 10 -106 l-3 -95 -70 -41 c-38 -23 -88 -51 -110 -64 l-41 -22 -153
71 c-127 59 -159 71 -186 66 -40 -8 -47 -22 -30 -62 10 -25 33 -40 129 -84 64
-30 116 -57 116 -60 0 -6 -328 -194 -346 -198 -7 -2 -44 13 -84 33 -65 33 -75
35 -106 25 -25 -9 -34 -17 -34 -34 0 -33 26 -63 65 -76 19 -6 35 -15 35 -18 0
-4 -117 -74 -259 -155 -235 -135 -259 -151 -265 -179 -8 -38 -3 -46 37 -53 28
-6 63 12 285 139 140 80 256 146 258 146 3 0 4 -22 3 -49 -3 -51 19 -101 45
-101 7 0 25 9 38 20 23 17 26 29 33 113 l7 93 166 94 c91 52 171 96 178 98 7
2 10 -6 8 -20 -2 -13 -8 -72 -13 -133 -8 -101 -7 -112 11 -137 24 -34 38 -35
67 -4 19 20 24 44 36 157 8 74 15 152 15 174 l0 40 97 55 c53 30 104 59 114
64 25 12 194 -85 203 -117 3 -12 6 -71 5 -132 l0 -110 -139 -103 c-109 -81
-140 -109 -145 -132 -8 -37 -2 -47 35 -55 27 -6 43 3 141 75 60 46 111 81 113
79 2 -2 7 -94 10 -204 l7 -200 -75 -55 c-70 -51 -75 -58 -76 -91 0 -59 50 -67
110 -19 21 17 40 30 43 30 2 0 7 -134 11 -297 7 -283 9 -299 29 -320 25 -28
48 -29 71 -4 16 18 17 42 10 315 -4 173 -3 296 2 296 5 0 20 -9 34 -20 29 -22
68 -26 93 -7 13 9 16 20 11 44 -5 26 -20 41 -79 80 l-73 47 -7 181 c-4 99 -6
190 -4 202 4 21 11 18 109 -47 105 -69 141 -81 173 -57 14 10 15 18 6 47 -9
30 -29 47 -155 129 l-145 94 3 134 3 134 87 47 88 47 102 -54 c57 -30 106 -57
110 -60 4 -3 17 -82 28 -176 18 -140 26 -174 43 -192 26 -29 38 -29 67 2 l23
24 -17 132 c-9 72 -15 134 -13 136 3 3 303 -151 354 -181 1 -1 7 -42 14 -91 9
-70 16 -94 33 -107 51 -42 93 0 82 83 l-7 51 53 -30 c29 -16 149 -80 266 -142
195 -102 216 -112 245 -103 35 10 43 27 28 64 -7 20 -65 55 -253 154 -312 165
-290 149 -239 175 42 21 67 60 57 87 -3 7 -18 18 -33 24 -25 10 -37 6 -105
-31 l-78 -41 -162 85 c-90 47 -171 91 -181 98 -16 12 -6 20 102 76 104 54 120
67 126 92 8 37 2 47 -34 55 -23 5 -59 -9 -182 -71 l-154 -77 -113 59 -112 59
2 104 3 104 103 60 103 60 163 -77 163 -78 33 17 c27 14 31 20 25 43 -10 41
-16 45 -140 103 -63 30 -115 56 -115 59 0 7 318 191 340 197 9 3 50 -12 90
-32 58 -29 80 -35 106 -30 42 7 48 17 35 58 -9 25 -23 39 -58 56 l-46 22 79
48 c43 26 161 94 261 151 160 91 182 107 187 133 7 36 3 42 -33 55 -26 9 -48
-1 -262 -125 -129 -74 -247 -141 -263 -150 l-28 -15 7 49 c6 43 3 52 -19 76
-20 22 -30 26 -44 18 -34 -18 -42 -37 -48 -123 l-7 -86 -176 -100 c-97 -55
-177 -99 -179 -98 -2 2 2 63 9 136 l12 133 -27 24 -27 23 -28 -21 c-28 -20
-29 -24 -41 -177 -7 -87 -16 -166 -21 -178 -4 -11 -48 -44 -101 -74 -51 -30
-100 -58 -109 -63 -11 -7 -39 4 -106 42 -90 52 -90 52 -97 98 -3 25 -6 85 -6
133 l0 87 92 69 c185 138 188 141 188 178 0 35 -13 46 -53 46 -12 0 -67 -34
-122 -75 -55 -41 -103 -75 -107 -75 -5 0 -8 69 -8 154 0 84 -3 174 -6 198 l-6
45 71 54 c39 29 74 63 77 75 10 40 1 58 -33 65 -26 5 -40 1 -72 -22 l-39 -29
-6 82 c-3 46 -8 180 -11 298 -6 213 -6 215 -31 238 -31 28 -35 28 -63 -2z"/>
<path d="M1647 7872 l-57 -58 0 -159 0 -160 -93 93 -93 93 -90 -3 -89 -3 -3
-86 -3 -85 186 -184 185 -184 0 -79 0 -79 -59 51 c-58 50 -60 51 -125 51 l-66
0 0 -72 0 -73 120 -120 120 -120 -127 -72 c-70 -40 -129 -71 -130 -69 -2 2
-23 76 -47 165 -23 89 -45 163 -47 164 -2 2 -30 18 -61 36 l-57 32 -26 -41
c-48 -76 -49 -81 -27 -159 11 -39 18 -71 16 -71 -3 0 -34 17 -69 38 l-63 37
-58 220 c-31 121 -61 234 -66 252 -7 25 -23 40 -79 72 -39 23 -76 41 -82 41
-7 0 -31 -33 -54 -74 l-42 -73 30 -118 c17 -64 28 -119 25 -122 -2 -2 -62 30
-134 72 l-129 76 -84 -21 c-46 -12 -86 -23 -88 -25 -2 -2 7 -43 20 -90 l22
-87 138 -81 c76 -45 133 -84 128 -88 -6 -3 -62 -19 -126 -35 l-115 -29 -40
-69 c-23 -38 -41 -75 -42 -82 0 -7 33 -33 73 -57 l75 -44 255 65 256 65 64
-38 c38 -23 58 -41 50 -44 -8 -2 -43 -12 -79 -21 -62 -15 -66 -18 -97 -71 -18
-30 -33 -59 -33 -64 0 -6 26 -26 57 -44 l57 -34 150 37 c83 21 157 40 164 43
9 4 12 -30 12 -146 0 -83 -3 -151 -7 -151 -5 1 -78 20 -163 44 l-155 43 -55
-30 c-30 -16 -59 -33 -63 -37 -4 -4 8 -34 27 -67 35 -59 37 -61 101 -78 36
-10 68 -22 71 -26 2 -4 -24 -24 -59 -44 l-64 -35 -248 67 -247 67 -75 -39
c-41 -22 -77 -43 -79 -47 -3 -4 15 -43 40 -85 l45 -78 108 -29 c59 -16 113
-32 120 -35 6 -3 -48 -41 -121 -84 l-133 -78 -23 -85 c-12 -47 -21 -87 -19
-89 2 -2 42 -13 89 -25 l85 -22 125 72 c69 39 133 76 142 81 15 8 16 5 7 -24
-5 -17 -21 -75 -35 -128 l-25 -96 42 -74 c23 -41 44 -76 46 -78 3 -5 119 54
148 75 10 7 43 110 84 263 38 139 70 253 72 255 14 11 129 75 129 71 0 -3 -9
-39 -21 -80 l-20 -75 31 -55 c17 -30 35 -57 40 -60 6 -3 36 9 67 28 l58 33 37
135 c21 74 41 146 45 161 l8 27 120 -70 c66 -38 121 -73 123 -77 1 -5 -49 -63
-113 -129 l-115 -121 0 -66 0 -66 72 0 72 0 58 57 58 57 0 -78 0 -78 -180
-186 -180 -187 0 -92 0 -93 87 0 88 0 92 92 93 93 0 -155 0 -156 65 -64 64
-64 23 19 c13 11 42 37 66 59 l42 40 0 170 0 171 98 -98 98 -98 85 3 84 3 3
90 3 90 -186 185 -185 185 0 80 0 79 58 -57 58 -57 72 0 72 0 0 72 0 73 -117
117 c-64 65 -115 119 -113 121 13 11 220 127 227 127 4 0 26 -69 48 -153 43
-162 48 -172 124 -215 l41 -23 37 58 36 57 -13 61 c-7 33 -15 71 -18 84 l-5
24 44 -27 c24 -15 53 -32 65 -38 18 -8 32 -53 88 -266 37 -141 68 -257 69
-258 47 -32 149 -84 156 -79 6 3 29 37 52 76 l40 70 -31 120 c-17 67 -29 123
-27 125 3 3 65 -31 139 -75 l135 -79 87 21 c60 15 86 26 86 36 0 8 -9 49 -21
91 l-20 77 -125 73 c-69 41 -127 77 -130 81 -2 4 47 19 109 34 61 15 119 35
128 44 9 9 33 46 53 82 l36 67 -77 45 -78 46 -252 -63 -252 -63 -68 40 -68 41
78 19 77 19 35 60 c19 32 35 61 35 62 0 2 -27 20 -59 39 l-59 35 -154 -39
c-84 -21 -159 -39 -165 -39 -10 0 -13 36 -13 146 0 134 1 145 18 140 9 -3 84
-23 165 -45 l148 -40 59 36 c33 19 60 38 60 42 -1 3 -15 31 -33 61 -31 51 -38
56 -93 73 -107 33 -106 30 -33 70 l65 37 254 -69 255 -69 78 45 c43 25 77 49
75 53 -2 5 -21 40 -43 79 -44 79 -23 67 -234 128 l-65 19 140 78 c76 44 140
80 142 82 6 4 42 147 42 165 0 12 -23 22 -85 38 l-84 23 -133 -75 c-73 -42
-134 -75 -135 -74 -1 1 13 56 30 123 l31 120 -44 77 c-24 42 -46 77 -49 77 -3
0 -39 -20 -80 -44 l-74 -43 -68 -247 c-37 -136 -69 -249 -71 -251 -7 -7 -127
-75 -131 -75 -3 0 4 32 15 71 22 78 21 83 -27 159 l-26 40 -60 -32 c-67 -37
-56 -14 -120 -250 -17 -65 -34 -116 -38 -114 -3 2 -61 36 -129 76 l-123 72
116 119 115 119 0 75 0 75 -67 0 -67 0 -63 -62 -63 -62 0 79 0 80 185 185 185
185 0 92 0 93 -92 0 -93 0 -92 -92 -93 -93 0 160 0 161 -63 62 c-34 34 -67 62
-73 62 -5 0 -35 -26 -67 -58z"/>
<path d="M6307 3673 c-4 -3 -7 -29 -7 -56 0 -43 -2 -48 -17 -42 -75 32 -86 1
-15 -40 30 -18 32 -23 32 -72 0 -80 -36 -65 -42 17 -4 55 -31 64 -36 13 -3
-32 -24 -45 -37 -23 -10 16 -35 12 -42 -6 -4 -11 2 -23 18 -35 l24 -18 -22
-16 c-26 -18 -30 -43 -9 -51 7 -3 30 5 50 17 33 19 38 20 60 6 29 -19 36 -54
36 -168 0 -94 -4 -100 -45 -73 -22 14 -25 23 -25 78 0 66 -14 94 -37 75 -7 -7
-13 -32 -13 -60 l0 -50 -30 16 c-29 15 -29 16 -32 113 -2 78 -6 97 -18 97 -9
0 -16 -11 -18 -30 -1 -16 -5 -54 -8 -82 l-5 -53 -24 16 c-18 12 -25 26 -27 57
-2 34 -7 42 -23 42 -14 0 -21 -8 -25 -27 -4 -22 -8 -25 -20 -18 -8 5 -23 10
-32 10 -25 0 -23 -37 2 -50 19 -10 19 -11 0 -30 -40 -40 -9 -60 44 -29 32 19
34 19 56 1 l23 -19 -56 -32 c-63 -36 -87 -65 -61 -75 9 -4 49 12 94 36 72 39
80 41 107 29 l28 -13 -43 -25 c-26 -15 -42 -32 -42 -44 0 -26 20 -24 84 8 l54
26 46 -27 46 -27 0 -75 c0 -67 -2 -75 -17 -72 -14 3 -18 14 -19 46 -1 51 -16
71 -39 52 -11 -9 -14 -22 -10 -37 6 -26 -2 -29 -28 -8 -11 7 -25 11 -33 8 -23
-9 -16 -39 13 -52 l28 -13 -28 -14 c-31 -17 -38 -54 -9 -54 9 0 31 9 48 19 30
18 33 19 60 2 28 -17 29 -20 32 -114 2 -54 1 -97 -3 -97 -3 0 -15 5 -26 10
-16 9 -19 22 -19 75 0 35 -5 67 -10 70 -21 13 -40 -17 -40 -61 0 -34 -3 -42
-15 -38 -10 4 -15 20 -15 44 0 38 -21 67 -40 55 -5 -3 -10 -17 -10 -31 0 -24
-14 -32 -25 -14 -8 13 -42 13 -50 0 -3 -5 5 -21 19 -35 24 -24 24 -25 5 -35
-22 -13 -25 -38 -5 -46 8 -3 28 2 45 12 23 14 35 15 53 7 22 -10 22 -11 -18
-31 -35 -18 -54 -38 -54 -58 0 -12 46 -1 93 22 51 25 55 26 79 10 29 -19 38
-52 38 -140 l0 -61 -82 -82 -83 -82 -103 -26 -104 -26 -79 47 c-77 45 -79 47
-79 85 0 37 3 41 55 70 37 20 55 37 55 50 0 25 -29 25 -74 -2 l-36 -21 0 21
c0 14 11 28 29 39 34 19 46 48 24 56 -8 3 -23 1 -34 -4 -16 -9 -19 -7 -19 13
0 32 -22 51 -38 35 -7 -7 -12 -23 -12 -35 0 -20 -3 -22 -19 -13 -23 12 -51 3
-51 -15 0 -7 16 -23 35 -35 21 -13 35 -30 35 -42 0 -20 0 -20 -36 1 -45 27
-74 27 -74 2 0 -13 18 -30 55 -50 38 -21 55 -37 55 -51 0 -11 -4 -20 -8 -20
-5 0 -44 21 -88 48 -68 40 -79 51 -82 77 -3 27 2 34 38 54 26 15 40 29 40 43
0 21 -18 22 -64 3 -16 -7 -18 -5 -14 18 7 34 -15 55 -37 37 -10 -8 -13 -21 -8
-38 5 -22 4 -24 -13 -17 -46 19 -64 18 -64 -3 0 -14 13 -28 38 -42 36 -20 53
-51 28 -49 -17 1 -131 75 -128 82 1 4 2 29 2 56 0 45 2 50 30 61 68 28 106 80
59 80 -12 0 -37 -9 -55 -21 l-34 -21 0 34 c0 31 5 36 70 71 66 36 97 66 83 81
-13 12 -36 5 -94 -29 l-59 -34 0 33 c0 25 6 35 24 44 14 6 30 20 35 31 9 16 7
21 -9 26 -12 4 -27 1 -35 -5 -13 -10 -15 -8 -15 13 0 32 -27 57 -41 36 -5 -8
-9 -24 -9 -37 0 -20 -3 -21 -21 -12 -11 7 -27 9 -35 6 -24 -9 -15 -33 21 -55
28 -16 35 -27 35 -51 0 -16 -2 -30 -4 -30 -3 0 -31 16 -63 35 -65 39 -93 44
-93 16 0 -12 25 -33 80 -65 72 -41 80 -49 80 -76 0 -36 0 -36 -42 -10 -41 25
-83 27 -74 4 3 -9 6 -17 6 -19 0 -2 25 -18 55 -35 50 -29 55 -35 55 -66 0 -19
-4 -34 -10 -34 -5 0 -54 27 -110 61 -90 54 -100 63 -100 90 0 23 8 34 40 54
59 37 49 79 -12 48 -27 -13 -28 -13 -28 16 0 35 -21 56 -38 39 -7 -7 -12 -25
-12 -41 0 -26 -1 -27 -21 -14 -26 19 -58 11 -52 -12 2 -9 20 -25 39 -36 21
-11 34 -26 34 -38 0 -18 -2 -18 -42 6 -37 22 -43 30 -46 63 -6 65 -42 85 -42
23 0 -34 -5 -35 -45 -9 -36 24 -75 26 -75 5 0 -8 20 -28 45 -43 l46 -28 -26
-14 c-26 -14 -33 -34 -15 -45 6 -4 27 3 46 14 l35 21 45 -26 c32 -19 42 -30
35 -37 -8 -8 -22 -4 -50 11 -36 20 -71 21 -71 2 0 -11 26 -37 42 -42 8 -3 2
-14 -17 -31 -24 -20 -27 -28 -18 -38 10 -10 18 -10 38 -1 34 16 35 16 35 -12
0 -13 6 -28 13 -35 21 -17 37 7 37 55 0 37 4 43 29 54 28 11 37 8 130 -45 56
-31 101 -60 101 -64 0 -3 -12 -14 -27 -23 -26 -16 -29 -15 -83 15 -34 18 -63
28 -73 24 -25 -9 -10 -35 34 -58 22 -11 39 -21 39 -24 0 -2 -12 -11 -27 -18
-24 -13 -31 -11 -100 29 -72 43 -93 50 -106 38 -13 -14 15 -43 70 -74 l57 -32
-23 -19 c-23 -19 -24 -19 -57 0 -35 21 -64 19 -64 -5 0 -8 9 -19 19 -26 19
-12 19 -13 -6 -36 -34 -31 -18 -52 27 -35 28 11 30 10 30 -12 0 -13 5 -27 10
-30 18 -11 40 16 40 50 0 24 7 37 25 49 l25 16 0 -74 c0 -49 4 -77 13 -85 26
-21 37 9 37 101 0 87 0 88 30 103 l30 16 0 -50 c0 -28 6 -53 13 -60 23 -19 37
9 37 76 l0 62 45 26 44 26 63 -36 c77 -45 76 -44 59 -55 -9 -5 -25 -1 -45 11
-57 35 -96 17 -52 -24 l25 -24 -24 -21 c-14 -12 -25 -26 -25 -32 0 -13 36 -13
61 0 16 9 19 7 19 -10 0 -12 5 -30 11 -41 17 -32 39 -5 39 47 0 38 4 45 30 59
29 15 32 14 110 -31 44 -26 79 -52 77 -58 -7 -21 -36 -17 -83 12 -50 32 -74
32 -74 1 0 -12 15 -26 43 -40 40 -21 41 -22 20 -32 -17 -7 -29 -6 -47 7 -51
33 -91 8 -47 -30 17 -15 17 -17 -7 -41 -23 -23 -23 -26 -9 -35 11 -5 24 -5 36
2 27 14 31 13 31 -7 0 -10 4 -24 9 -32 16 -25 41 6 41 49 0 25 5 40 16 44 26
10 27 8 22 -39 -6 -51 11 -77 37 -55 10 9 15 32 15 74 0 58 2 62 31 78 l30 18
78 -45 78 -45 31 -103 c18 -56 32 -109 32 -116 0 -7 -14 -59 -31 -115 l-31
-102 -74 -42 c-40 -23 -78 -42 -85 -42 -6 0 -24 9 -39 20 -26 18 -29 28 -32
83 -2 47 -7 62 -18 62 -11 0 -16 -13 -18 -48 -3 -39 -6 -48 -20 -45 -12 2 -19
17 -23 45 -3 24 -8 46 -12 49 -13 13 -37 -6 -37 -31 0 -22 -3 -24 -19 -15 -25
13 -61 13 -61 0 0 -6 11 -21 24 -33 24 -22 24 -23 5 -35 -10 -7 -19 -19 -19
-27 0 -20 39 -19 67 0 20 14 53 11 53 -4 0 -5 -15 -16 -34 -26 -38 -21 -52
-50 -29 -60 9 -3 40 8 70 25 47 27 56 29 73 17 17 -12 11 -17 -66 -61 -78 -45
-86 -48 -114 -36 -27 11 -30 17 -30 61 0 26 -5 51 -10 54 -16 10 -40 -15 -40
-41 0 -24 -14 -32 -25 -14 -8 13 -42 13 -50 0 -3 -5 5 -20 19 -33 l25 -24 -24
-21 c-14 -12 -25 -26 -25 -31 0 -18 35 -16 72 4 28 15 40 17 48 9 9 -9 -5 -21
-55 -50 l-68 -37 -43 24 -44 24 0 61 c0 42 -5 65 -15 74 -23 19 -35 2 -35 -51
0 -27 -2 -49 -5 -49 -3 0 -17 7 -30 16 -23 15 -25 22 -25 104 0 60 -4 91 -13
99 -25 20 -37 -9 -37 -86 l0 -74 -29 16 c-25 12 -30 22 -33 57 -4 50 -31 61
-36 16 -3 -28 -16 -36 -27 -18 -8 13 -42 13 -50 0 -3 -5 5 -21 18 -34 22 -22
23 -24 5 -35 -41 -25 -10 -59 33 -35 31 17 51 17 74 1 16 -13 14 -16 -37 -45
-69 -40 -86 -58 -69 -75 9 -9 30 -3 94 31 75 40 84 43 110 31 l28 -13 -37 -22
c-53 -32 -68 -60 -36 -66 9 -2 39 9 65 24 56 33 64 34 95 10 l22 -17 -102 -61
c-98 -58 -104 -61 -130 -47 -24 12 -28 20 -28 57 0 44 -19 74 -40 61 -5 -3
-10 -20 -10 -37 0 -25 -3 -29 -17 -23 -55 23 -88 -11 -37 -38 l27 -14 -26 -18
c-55 -35 -19 -67 38 -34 24 14 39 18 51 11 13 -7 8 -14 -30 -36 l-46 -27 -38
20 c-26 13 -43 16 -53 10 -11 -8 -9 -14 15 -33 l28 -23 -41 -24 c-24 -13 -41
-30 -41 -41 0 -23 21 -23 70 2 l39 20 3 -33 c5 -52 32 -42 36 14 3 44 5 48 52
73 40 22 50 24 50 12 0 -9 -18 -27 -41 -41 -60 -38 -41 -78 24 -50 13 6 17 2
17 -18 0 -31 22 -51 38 -35 7 7 12 22 12 35 0 26 3 27 30 13 10 -5 25 -7 33
-4 24 9 8 40 -29 60 -28 15 -34 24 -34 51 0 36 8 42 143 117 l67 38 0 -39 c0
-35 -4 -40 -51 -66 -54 -31 -70 -54 -48 -68 9 -5 29 0 56 16 l43 24 0 -32 c0
-30 -6 -36 -77 -77 -77 -45 -101 -75 -66 -82 10 -2 43 11 73 29 30 18 58 33
63 33 4 0 7 -13 7 -30 0 -22 -7 -33 -29 -44 -25 -13 -41 -34 -41 -53 0 -3 16
-3 35 0 29 5 35 3 35 -12 0 -22 25 -45 40 -36 5 3 10 17 10 30 0 22 3 23 36
18 31 -5 36 -4 32 13 -2 10 -18 28 -35 39 -23 14 -32 28 -33 48 0 15 3 27 6
27 3 0 34 -16 68 -35 40 -22 66 -31 75 -26 25 16 4 39 -73 83 -70 40 -75 46
-76 76 l0 33 43 -24 c23 -14 48 -23 55 -20 27 10 10 39 -41 68 -51 30 -52 32
-55 82 -3 51 -2 53 35 76 21 13 53 32 71 41 31 16 32 16 32 -3 0 -11 -8 -22
-18 -25 -22 -7 -62 -43 -62 -55 0 -16 39 -19 59 -4 20 13 21 12 21 -15 0 -36
21 -57 38 -40 7 7 12 25 12 41 0 29 0 29 24 13 27 -17 56 -12 56 10 0 8 -18
26 -41 41 -34 22 -40 31 -37 57 3 26 13 36 85 77 74 43 82 45 86 28 4 -15 -5
-26 -35 -45 -22 -14 -45 -28 -53 -30 -19 -8 -25 -42 -8 -48 8 -3 32 3 53 14
47 24 47 24 47 4 0 -9 -15 -25 -34 -36 -20 -12 -33 -28 -33 -40 0 -18 4 -19
35 -14 32 6 35 5 35 -18 0 -14 5 -28 10 -31 15 -9 40 13 40 34 0 14 7 17 30
13 25 -4 30 -1 30 17 0 13 -11 26 -30 36 -18 9 -30 23 -30 35 0 25 1 25 43 0
32 -19 67 -19 67 0 0 14 -27 37 -70 61 -37 21 -40 26 -40 64 0 41 1 41 76 84
l75 43 112 -31 112 -31 77 -77 78 -78 0 -87 c0 -86 0 -87 -32 -109 l-32 -23
-55 30 c-96 52 -129 20 -37 -36 33 -20 36 -24 21 -33 -12 -6 -29 -4 -55 8 -54
24 -82 3 -41 -31 17 -15 17 -17 -7 -41 -23 -23 -23 -26 -9 -35 11 -5 24 -5 36
2 27 14 31 13 31 -7 0 -10 4 -24 9 -32 16 -25 41 6 41 49 0 24 5 40 15 44 12
4 15 -4 15 -38 0 -27 6 -48 15 -56 26 -21 39 3 36 66 -2 55 9 84 34 84 10 0
12 -24 11 -98 -2 -94 -3 -97 -29 -112 -25 -14 -30 -13 -58 3 -17 9 -39 17 -50
17 -28 0 -24 -32 6 -51 l26 -15 -26 -14 c-33 -17 -35 -54 -2 -47 12 2 30 8 40
12 14 6 17 2 17 -23 0 -36 15 -49 36 -31 10 8 14 26 12 53 -2 32 1 42 14 44
15 3 17 -7 15 -73 l-1 -77 -45 -26 -44 -26 -51 27 c-28 15 -59 27 -69 27 -32
0 -18 -35 25 -59 39 -22 40 -25 23 -37 -28 -21 -42 -18 -117 26 -68 39 -89 46
-101 34 -12 -13 7 -36 52 -61 75 -43 76 -44 49 -64 -22 -17 -24 -17 -54 2 -30
18 -64 17 -64 -2 0 -4 9 -17 21 -28 l21 -19 -21 -11 c-26 -14 -28 -51 -3 -51
9 0 24 5 32 10 12 7 16 4 20 -18 4 -19 11 -27 25 -27 16 0 21 8 25 44 4 31 12
48 28 59 l22 14 0 -75 c0 -55 4 -78 15 -87 29 -24 40 4 40 102 1 85 2 91 25
103 25 13 25 13 30 -38 4 -44 8 -52 25 -52 18 0 21 8 25 69 5 66 7 71 37 89
l32 18 0 -124 0 -123 -30 -18 c-28 -17 -31 -17 -63 3 -18 12 -41 21 -50 21
-24 0 -20 -35 7 -53 l22 -16 -22 -16 c-13 -9 -23 -22 -23 -29 0 -18 23 -26 41
-15 23 14 37 10 33 -8 -3 -10 2 -27 11 -38 l15 -20 16 20 c8 11 14 34 12 50
-2 32 7 55 23 55 6 0 9 -22 7 -51 -3 -48 -6 -54 -41 -76 -54 -34 -34 -64 26
-38 15 6 17 1 17 -43 0 -28 5 -54 10 -57 21 -13 40 17 40 62 0 40 2 43 19 33
55 -29 71 9 17 41 -31 18 -34 24 -38 75 -2 42 0 53 10 49 8 -3 16 -5 18 -5 2
0 4 -22 4 -49 0 -28 5 -53 10 -56 16 -10 40 15 40 41 0 27 3 28 30 14 10 -5
25 -7 33 -4 20 7 10 42 -14 49 -25 8 -24 22 1 35 23 12 27 50 6 50 -8 0 -31
-9 -50 -21 -33 -19 -36 -19 -60 -3 -26 16 -26 18 -26 141 l0 124 30 -21 c27
-20 30 -26 30 -79 0 -39 5 -63 15 -71 23 -19 35 -2 35 51 0 27 2 49 5 49 3 0
17 -7 30 -16 23 -15 25 -22 25 -104 0 -60 4 -91 13 -99 25 -20 37 9 37 87 l0
74 23 -14 c14 -10 23 -27 25 -51 5 -58 52 -78 52 -22 0 22 2 23 30 12 45 -17
61 4 27 35 -25 23 -25 24 -6 36 10 7 19 18 19 26 0 22 -31 28 -56 11 -29 -19
-45 -19 -69 -2 -16 13 -13 17 43 51 57 34 78 57 65 70 -12 12 -33 5 -101 -34
-75 -43 -88 -46 -115 -26 -17 13 -15 16 22 37 40 22 54 53 29 62 -7 2 -37 -10
-67 -26 l-53 -30 -44 24 -44 24 0 78 c0 58 3 78 13 75 6 -3 13 -24 15 -49 2
-24 7 -48 12 -53 14 -14 40 13 40 39 0 22 2 22 30 12 46 -17 61 4 25 37 -27
25 -27 25 -6 38 23 14 28 44 9 51 -7 2 -29 -5 -50 -17 -32 -18 -39 -19 -61 -7
-24 13 -26 19 -29 112 -3 98 3 114 30 87 7 -7 12 -38 12 -69 0 -35 5 -61 13
-68 21 -17 37 7 37 56 0 34 3 41 15 37 10 -4 15 -20 15 -44 0 -38 21 -67 40
-55 5 3 10 17 10 31 0 28 0 28 35 12 17 -8 29 -8 36 -1 14 14 2 39 -24 50
l-22 10 23 12 c25 13 30 51 7 51 -9 0 -30 -7 -46 -16 -31 -15 -59 -13 -59 5 0
5 8 12 18 15 22 7 62 43 62 55 0 22 -33 17 -84 -10 -56 -31 -56 -31 -88 -12
l-31 18 2 90 2 90 82 81 82 81 101 26 102 27 73 -43 c71 -42 74 -45 77 -85 3
-40 2 -42 -47 -69 -53 -29 -69 -49 -51 -67 7 -7 24 -3 55 12 45 22 45 22 45 1
0 -12 -12 -27 -29 -37 -17 -9 -32 -24 -34 -34 -6 -19 23 -30 47 -16 13 7 16 4
16 -15 0 -31 22 -51 38 -35 7 7 12 22 12 35 0 25 10 29 26 13 14 -14 44 -2 44
16 0 8 -16 24 -35 35 -20 12 -35 29 -35 40 0 24 2 24 42 -1 43 -26 68 -26 68
0 0 14 -17 30 -55 51 -37 20 -55 37 -55 50 0 10 4 19 9 19 5 0 45 -21 90 -47
73 -43 81 -51 81 -78 0 -25 -7 -34 -41 -53 -60 -35 -41 -75 24 -47 14 6 17 2
17 -23 0 -17 5 -34 10 -37 16 -10 40 15 40 41 0 21 2 23 24 12 14 -6 32 -8 41
-4 22 8 4 41 -35 61 -17 9 -30 23 -30 31 0 20 14 15 85 -31 54 -34 55 -35 55
-83 0 -48 -1 -49 -50 -76 -57 -31 -81 -63 -55 -73 9 -3 34 4 55 16 48 27 50
27 50 -8 0 -26 -8 -34 -75 -71 -82 -45 -108 -74 -76 -85 12 -3 41 7 79 30 33
19 62 35 64 35 2 0 2 -15 0 -33 -3 -23 -12 -37 -33 -49 -31 -18 -38 -45 -14
-54 8 -4 22 -1 30 6 13 10 15 8 15 -13 0 -27 23 -52 40 -42 5 3 10 19 10 36 0
31 9 36 27 18 15 -15 43 -4 43 16 0 9 -16 25 -35 36 -27 16 -35 27 -35 50 0
16 2 29 4 29 3 0 31 -16 63 -35 59 -35 87 -43 98 -25 9 14 -26 44 -93 82 -52
28 -61 37 -64 65 -5 39 -3 39 37 13 35 -23 75 -26 75 -6 0 16 -29 41 -79 68
-26 14 -31 23 -31 53 0 20 4 35 9 33 5 -1 52 -28 105 -58 90 -52 96 -57 96
-87 0 -27 -7 -37 -40 -58 -22 -14 -40 -32 -40 -40 0 -17 32 -20 61 -5 17 9 19
7 19 -18 0 -36 21 -57 38 -40 7 7 12 25 12 41 0 29 0 29 24 13 23 -15 56 -13
56 3 0 12 -24 37 -52 54 -16 10 -28 24 -28 33 0 13 7 11 43 -8 37 -21 42 -28
45 -63 4 -49 19 -70 38 -54 8 6 14 23 14 36 l0 25 36 -21 c44 -26 74 -27 74
-3 0 11 -16 28 -40 41 l-41 23 27 25 c20 19 24 27 15 36 -9 9 -21 7 -52 -10
l-39 -21 -46 25 c-34 19 -43 28 -34 37 8 8 21 5 51 -11 41 -23 69 -21 69 3 0
7 -11 21 -25 30 l-25 16 25 20 c14 11 25 26 25 34 0 16 -45 20 -55 4 -12 -20
-25 -10 -25 19 0 17 -5 33 -10 36 -21 13 -40 -17 -40 -60 0 -38 -3 -44 -30
-55 -28 -12 -36 -9 -130 46 -55 33 -100 62 -100 66 0 4 13 14 30 23 28 14 31
14 77 -15 47 -30 77 -37 87 -21 8 12 -14 36 -53 59 l-33 20 28 15 c28 14 32
13 106 -30 71 -42 108 -50 108 -24 0 14 -16 27 -79 66 l-54 33 26 16 c24 16
27 16 57 -3 34 -20 60 -18 60 5 0 8 -9 19 -19 26 -19 12 -19 13 5 35 36 33 31
47 -16 39 -35 -5 -40 -4 -40 13 0 11 -5 23 -10 26 -18 11 -40 -16 -40 -50 0
-24 -7 -37 -25 -49 l-25 -16 0 74 c0 49 -4 77 -13 85 -26 21 -37 -9 -37 -101
0 -87 0 -88 -30 -103 l-30 -16 0 50 c0 53 -12 70 -35 51 -10 -8 -15 -32 -15
-70 l0 -58 -44 -26 -45 -26 -63 36 c-78 45 -74 42 -61 55 9 9 21 6 46 -10 60
-37 97 -21 54 23 l-25 24 24 21 c13 12 24 25 24 30 0 18 -33 21 -56 6 -23 -15
-24 -15 -24 14 0 15 -6 33 -13 40 -21 17 -37 -7 -37 -54 0 -34 -5 -43 -29 -58
-29 -17 -29 -17 -117 35 -82 48 -86 52 -65 62 19 8 32 5 71 -17 99 -55 124
-18 30 45 -23 15 -24 17 -6 24 11 4 29 0 48 -10 16 -10 36 -15 44 -12 20 8 17
33 -5 46 -19 10 -19 11 6 36 23 23 24 27 10 36 -11 5 -24 5 -36 -2 -28 -14
-31 -13 -31 14 0 14 -5 28 -10 31 -19 12 -40 -17 -40 -55 0 -25 -5 -40 -16
-44 -26 -10 -27 -8 -20 37 5 33 3 47 -8 56 -25 21 -36 3 -36 -64 0 -62 -1 -64
-35 -85 l-35 -21 -78 46 -78 47 -28 109 -28 109 28 109 29 110 79 44 78 45 34
-20 c33 -19 34 -22 34 -83 0 -35 5 -67 10 -70 21 -13 40 17 40 62 0 39 2 44
15 33 8 -7 15 -27 15 -45 0 -40 23 -63 45 -45 8 7 15 18 15 26 0 9 10 11 35 7
28 -4 35 -2 35 10 0 9 -11 24 -25 33 -25 17 -25 17 -5 31 22 16 26 39 8 46 -7
2 -29 -4 -50 -14 -31 -16 -38 -16 -48 -4 -10 12 -6 17 24 31 35 17 51 38 40
55 -9 15 -31 10 -83 -20 -41 -25 -52 -27 -67 -17 -15 11 -7 19 67 64 82 49 84
50 111 34 24 -14 28 -23 28 -58 0 -46 19 -71 38 -52 7 7 12 22 12 35 0 24 14
31 25 13 3 -5 17 -10 31 -10 36 0 30 35 -10 57 -18 10 -18 11 7 28 57 37 17
67 -44 33 -27 -15 -42 -19 -50 -11 -7 7 9 21 51 47 34 20 66 36 72 36 6 0 31
-11 55 -25 l43 -26 0 -64 c0 -35 5 -67 10 -70 21 -13 40 17 40 61 0 43 0 43
25 32 24 -11 25 -15 25 -103 0 -65 4 -96 13 -104 25 -20 37 9 37 86 0 40 2 73
5 73 3 0 16 -7 28 -15 16 -10 24 -26 25 -52 2 -21 7 -42 12 -47 13 -13 40 12
40 36 0 16 3 17 21 8 22 -12 49 -7 49 10 0 6 -9 18 -19 27 -20 16 -20 17 0 42
18 23 19 25 3 34 -12 7 -25 5 -44 -7 -34 -19 -49 -20 -73 -1 -17 12 -14 16 47
51 43 25 66 45 66 56 0 28 -32 22 -110 -23 -62 -36 -75 -40 -96 -30 -33 15
-30 23 13 46 21 11 39 27 41 36 6 30 -28 29 -83 -2 -52 -29 -55 -30 -84 -14
-17 8 -31 17 -31 19 0 2 47 31 105 65 102 60 106 61 130 45 19 -12 25 -25 25
-53 0 -21 7 -46 15 -57 15 -19 15 -19 30 0 8 11 15 28 15 38 0 16 3 17 21 8
44 -24 68 16 27 44 l-22 16 22 16 c26 18 30 54 6 54 -9 0 -32 -9 -50 -21 -23
-14 -38 -18 -50 -11 -13 7 -8 14 32 36 l49 27 37 -21 c38 -21 58 -20 58 3 0 7
-12 20 -27 28 l-26 17 41 23 c44 26 60 56 33 62 -9 2 -35 -7 -58 -20 l-42 -24
-3 33 c-5 52 -32 43 -36 -12 -3 -41 -7 -47 -42 -68 -70 -40 -86 -20 -20 24 59
39 42 76 -22 49 -15 -6 -18 -2 -18 23 0 17 -5 34 -10 37 -16 10 -40 -15 -40
-41 0 -26 -10 -30 -27 -13 -6 6 -20 8 -32 4 -17 -5 -19 -10 -11 -26 6 -10 24
-26 41 -34 26 -14 30 -21 27 -52 -3 -39 2 -35 -150 -122 l-58 -32 0 38 c0 35
4 40 51 66 54 31 69 51 50 70 -8 8 -21 5 -50 -11 -49 -28 -51 -28 -51 6 0 24
10 33 77 72 43 25 79 53 81 61 6 31 -28 28 -87 -6 -33 -19 -62 -35 -65 -35 -3
0 -6 13 -6 30 0 22 7 33 29 44 25 13 41 34 41 53 0 3 -15 3 -34 0 -32 -5 -35
-3 -38 21 -2 19 -9 27 -23 27 -14 0 -21 -8 -23 -27 -3 -25 -6 -26 -39 -21 -32
5 -35 4 -30 -11 4 -10 7 -19 7 -22 0 -2 14 -10 30 -19 23 -12 30 -22 30 -45 0
-17 -3 -30 -6 -30 -3 0 -34 16 -68 35 -40 22 -66 31 -75 26 -24 -15 -5 -36 73
-81 66 -38 76 -47 76 -72 0 -33 -5 -34 -47 -8 -35 21 -66 17 -61 -8 2 -9 27
-30 56 -46 l52 -30 0 -52 c0 -57 0 -57 -82 -103 -54 -30 -58 -31 -58 -12 0 11
8 22 18 25 22 7 62 43 62 55 0 18 -34 21 -56 6 -23 -15 -24 -15 -24 14 0 35
-21 56 -38 39 -7 -7 -12 -25 -12 -40 0 -28 -1 -28 -24 -13 -22 15 -56 12 -56
-6 0 -12 40 -48 62 -55 15 -4 18 -14 16 -42 -3 -33 -8 -39 -85 -83 -80 -46
-83 -47 -83 -24 0 18 12 31 49 52 28 15 52 35 54 45 8 27 -27 31 -67 7 -36
-21 -36 -21 -36 -1 0 13 12 28 30 39 17 9 30 26 30 36 0 16 -6 18 -30 15 -23
-4 -30 -1 -30 13 0 21 -25 43 -40 34 -5 -3 -10 -17 -10 -30 0 -22 -3 -23 -35
-18 -47 8 -48 -19 0 -49 19 -13 35 -31 35 -40 0 -22 -2 -22 -50 2 -41 21 -72
18 -63 -6 3 -8 30 -30 59 -49 48 -31 54 -39 54 -69 0 -32 -5 -37 -80 -80 l-80
-46 -107 26 -108 27 -79 83 -79 84 2 88 c2 76 5 89 24 104 30 24 38 23 97 -12
79 -46 117 -13 40 35 -39 25 -45 45 -14 45 8 0 26 -7 39 -16 28 -18 55 -13 55
10 0 9 -9 20 -19 26 -19 10 -19 11 5 35 14 14 22 30 19 35 -8 13 -42 13 -50 0
-11 -18 -25 -10 -25 14 0 14 -5 28 -10 31 -19 12 -40 -17 -40 -55 0 -24 -5
-40 -15 -44 -12 -4 -15 4 -15 38 0 44 -19 74 -40 61 -5 -3 -10 -35 -10 -70 0
-54 -3 -66 -20 -75 -19 -10 -20 -8 -20 89 0 100 0 101 28 114 24 13 30 12 57
-4 57 -36 95 -16 50 25 -27 25 -27 25 -6 38 24 15 28 43 7 51 -7 3 -23 -1 -35
-9 -20 -14 -21 -14 -21 14 0 36 -22 59 -38 39 -6 -7 -12 -32 -14 -56 -2 -25
-9 -46 -15 -49 -10 -3 -13 17 -13 76 l0 80 44 25 43 24 55 -30 c89 -50 120
-15 33 37 l-38 24 28 15 c28 14 32 13 103 -29 71 -42 92 -50 104 -38 16 15 -9
43 -64 74 l-61 33 23 19 c22 18 23 18 56 -1 35 -21 64 -19 64 5 0 8 -9 19 -19
26 -19 12 -19 13 6 36 34 31 18 52 -27 35 -28 -11 -30 -10 -30 12 0 13 -5 27
-10 30 -18 11 -40 -16 -40 -50 0 -24 -7 -37 -25 -49 l-25 -16 0 74 c0 52 -4
77 -15 86 -27 22 -35 0 -35 -95 l0 -94 -30 -16 -30 -16 0 49 c0 53 -15 78 -37
61 -8 -7 -13 -34 -13 -75 0 -54 -3 -65 -22 -78 -12 -9 -26 -16 -30 -16 -5 0
-8 54 -8 120 0 116 1 120 25 136 23 15 27 15 60 -5 62 -36 95 -20 51 24 l-25
25 26 26 c24 24 25 27 9 36 -12 7 -26 7 -42 -1 -22 -9 -24 -8 -24 13 0 26 -24
51 -40 41 -5 -3 -10 -26 -10 -49 0 -27 -6 -48 -15 -56 -13 -11 -15 -5 -15 43
0 52 2 56 35 77 60 37 40 64 -26 36 -14 -6 -17 0 -16 37 0 56 -15 82 -36 60z
m-7 -1467 l0 -105 -59 -35 c-32 -20 -62 -36 -66 -36 -11 0 -187 102 -183 106
2 2 42 12 88 23 84 19 86 20 145 85 33 36 63 65 68 66 4 0 7 -47 7 -104z m118
35 l67 -68 88 -18 88 -18 -91 -53 c-50 -30 -95 -54 -100 -54 -5 0 -34 15 -65
34 l-56 34 -2 106 c-1 58 -1 106 1 106 1 0 33 -31 70 -69z m-318 -231 l45 -26
3 -71 3 -71 -93 -55 c-51 -30 -94 -54 -95 -53 -2 2 10 42 26 89 l30 87 -30 87
c-16 48 -29 89 -29 91 0 2 21 -9 48 -24 26 -15 67 -39 92 -54z m557 -19 l-25
-80 28 -91 c15 -49 26 -90 23 -90 -3 0 -45 24 -93 52 l-89 53 -3 74 -3 73 90
53 c50 30 91 50 93 45 2 -5 -8 -45 -21 -89z m-416 -237 l59 -35 0 -105 c0 -57
-2 -104 -4 -104 -2 0 -34 31 -70 68 -66 68 -67 69 -152 87 -50 10 -82 21 -76
27 17 17 157 97 171 97 7 1 40 -15 72 -35z m303 -3 c122 -68 121 -65 25 -90
-78 -21 -88 -27 -149 -87 -36 -35 -68 -64 -70 -64 -3 0 -4 49 -2 108 l3 109
52 30 c29 17 56 32 61 32 5 1 41 -17 80 -38z"/>
<path d="M1464 3294 l-81 -46 -38 -141 c-26 -94 -42 -136 -47 -126 -5 8 -46
77 -91 153 l-82 139 -89 24 c-48 13 -94 22 -100 20 -7 -3 -23 -47 -36 -99
l-23 -93 92 -159 c50 -87 90 -160 89 -161 -2 -1 -67 15 -146 37 l-143 39 -84
-48 c-47 -26 -85 -53 -85 -60 0 -6 21 -48 47 -93 40 -68 53 -82 83 -90 19 -6
145 -40 280 -76 135 -36 250 -71 257 -77 12 -12 203 -334 203 -342 0 -3 -96
-5 -213 -5 l-212 0 -205 205 -205 205 -107 0 -108 0 0 -101 0 -102 102 -103
102 -104 -175 0 -175 0 -72 -73 -72 -72 73 -73 72 -72 185 0 185 0 -108 -108
-108 -108 3 -100 3 -99 105 -3 105 -2 210 210 210 210 198 0 c186 0 199 -1
192 -17 -11 -30 -196 -353 -205 -358 -5 -3 -133 -38 -285 -79 -151 -40 -277
-75 -279 -77 -25 -34 -96 -173 -89 -179 4 -4 44 -28 88 -54 l80 -46 134 36
c73 19 135 34 136 32 2 -2 -34 -70 -81 -151 l-84 -147 21 -82 c32 -126 23
-120 128 -93 48 12 93 25 99 28 5 4 49 76 98 161 49 85 90 153 92 152 1 -2 19
-65 40 -142 l38 -138 79 -48 c44 -26 87 -48 95 -48 8 0 36 38 63 85 l48 84
-76 279 c-41 154 -75 285 -75 291 0 7 46 90 101 187 89 153 103 173 114 157
37 -55 195 -333 195 -344 0 -6 -34 -138 -75 -291 l-75 -280 47 -84 c27 -46 54
-84 61 -84 15 0 152 76 168 93 6 7 23 59 38 117 15 58 32 120 38 138 l10 33
88 -152 c49 -83 92 -155 97 -160 12 -12 193 -62 200 -55 3 2 16 47 29 99 l24
95 -85 148 c-46 81 -83 150 -81 152 2 2 63 -13 136 -33 l132 -35 71 39 c122
67 117 55 62 150 -27 45 -53 85 -59 89 -6 4 -135 41 -286 82 l-274 75 -107
185 -107 185 201 3 201 2 211 -210 211 -211 104 3 105 3 3 99 3 98 -108 109
-107 109 185 0 185 0 72 73 72 72 -73 73 -72 72 -175 0 -175 0 103 103 103
103 -3 100 -3 99 -105 3 -105 2 -205 -205 -205 -205 -212 0 c-117 0 -213 2
-213 4 0 2 45 81 100 177 l100 173 252 67 c139 37 270 73 290 79 33 9 43 21
83 95 26 47 44 89 41 93 -3 5 -42 30 -86 56 l-81 47 -136 -36 c-75 -19 -140
-35 -144 -35 -5 0 33 71 83 157 l91 156 -13 51 c-27 107 -41 146 -53 146 -7 0
-50 -11 -97 -23 l-85 -23 -91 -153 -91 -152 -38 139 -39 139 -82 46 c-45 26
-86 47 -92 47 -14 0 -102 -154 -102 -177 1 -10 34 -139 74 -288 l73 -270 -47
-80 c-26 -44 -73 -124 -104 -178 -31 -54 -61 -95 -65 -93 -15 9 -201 343 -201
360 0 9 32 134 70 278 39 144 70 267 70 274 0 19 -94 174 -105 174 -5 0 -46
-21 -91 -46z"/>
</g>
</svg>
